# xmcd
#
# Track frame offsets:
#	150
#	3940
#	21397
#	36453
#	53656
#	67501
#	82196
#	97538
#	118326
#	135886
#	153001
#	169963
#	188490
#	204975
#	220037
#	237255
#
# Disc length: 3642 seconds
#
# Revision: 0
# Processed by: cddbd v1.5.1PL2 Copyright (c) Steve Scherf et al.
# Submitted via: dBpowerAMP V4.0
#
DISCID=c00e3810
DTITLE=Israel - Chapter One
DYEAR=1900
DGENRE=R&B
TTITLE0=Intro
TTITLE1=How Long
TTITLE2=Comin' 2 Getcha (feat. Jin)
TTITLE3=Signal Pt 2 (feat. Ka$h)
TTITLE4=Work Da Middle Pt 2 (feat.Thara)
TTITLE5=Full Force (feat. Ken Hell)
TTITLE6=Why Oh Why
TTITLE7=Remember When (feat. BVP)
TTITLE8=Your Everything
TTITLE9=Never
TTITLE10=My Girl
TTITLE11=Centre
TTITLE12=Wake Up With You
TTITLE13=Old Skool Luv (feat. Valeri and KG)
TTITLE14=Stars
TTITLE15=Survival
EXTD=
EXTT0=
EXTT1=
EXTT2=
EXTT3=
EXTT4=
EXTT5=
EXTT6=
EXTT7=
EXTT8=
EXTT9=
EXTT10=
EXTT11=
EXTT12=
EXTT13=
EXTT14=
EXTT15=
PLAYORDER=
